<?xml version="1.0" encoding="UTF-8" standalone="no"?>
<!-- Created with Inkscape (http://www.inkscape.org/) -->

<svg
   width="128"
   height="128"
   viewBox="0 0 33.866666 33.866666"
   version="1.1"
   id="svg1"
   xml:space="preserve"
   inkscape:version="1.3 (0e150ed6c4, 2023-07-21)"
   sodipodi:docname="spot.svg"
   inkscape:export-filename="..\ResearchReinvented_SteppingStones\v1.5\Textures\RRSS\Things\spot.png"
   inkscape:export-xdpi="96"
   inkscape:export-ydpi="96"
   xmlns:inkscape="http://www.inkscape.org/namespaces/inkscape"
   xmlns:sodipodi="http://sodipodi.sourceforge.net/DTD/sodipodi-0.dtd"
   xmlns:xlink="http://www.w3.org/1999/xlink"
   xmlns="http://www.w3.org/2000/svg"
   xmlns:svg="http://www.w3.org/2000/svg"><sodipodi:namedview
     id="namedview1"
     pagecolor="#505050"
     bordercolor="#ffffff"
     borderopacity="1"
     inkscape:showpageshadow="0"
     inkscape:pageopacity="0"
     inkscape:pagecheckerboard="1"
     inkscape:deskcolor="#d1d1d1"
     inkscape:document-units="px"
     inkscape:zoom="4.1373683"
     inkscape:cx="47.01056"
     inkscape:cy="36.85918"
     inkscape:window-width="1920"
     inkscape:window-height="1017"
     inkscape:window-x="2552"
     inkscape:window-y="348"
     inkscape:window-maximized="1"
     inkscape:current-layer="layer1" /><defs
     id="defs1"><linearGradient
       id="linearGradient28"
       inkscape:collect="always"><stop
         style="stop-color:#589ea0;stop-opacity:1;"
         offset="0.68507159"
         id="stop28" /><stop
         style="stop-color:#4b8387;stop-opacity:1;"
         offset="1"
         id="stop29" /></linearGradient><radialGradient
       inkscape:collect="always"
       xlink:href="#linearGradient28"
       id="radialGradient29"
       cx="16.933334"
       cy="16.933311"
       fx="16.933334"
       fy="16.933311"
       r="16.1967"
       gradientTransform="matrix(1,0,0,0.89254222,0,1.819616)"
       gradientUnits="userSpaceOnUse" /></defs><g
     inkscape:label="Layer 1"
     inkscape:groupmode="layer"
     id="layer1"><path
       id="path21-7"
       style="fill:#2e5152;fill-opacity:0.01;stroke:none;stroke-width:0.954491;stroke-dashoffset:18.1417;stroke-opacity:1"
       d="M 22.8125,1.9101562 C 20.550952,2.2437216 18.582271,3.596151 16.921875,5.1015625 14.997118,3.3654232 12.580876,1.6844522 9.8602132,1.9375034 7.8478617,2.2183427 6.5388039,4.2013087 6.3834717,6.1186844 c -0.2310099,1.6337964 -0.05922,3.2978205 0.2962158,4.9008466 -2.4410847,0.785708 -5.0639533,2.0296 -6.23982725,4.450443 -0.76150759,1.797111 0.11613394,3.898283 1.63240535,5.004635 1.3352084,1.123594 2.9581262,1.850284 4.6113282,2.371094 -0.5442277,2.515888 -0.7736647,5.409156 0.7402343,7.646485 1.1778082,1.540865 3.4203189,1.826817 5.1290729,1.079236 1.645157,-0.598145 3.091466,-1.637918 4.374833,-2.811658 1.89478,1.715177 4.27081,3.36196 6.946932,3.180078 1.723364,-0.16622 3.048474,-1.62922 3.396616,-3.270995 0.536672,-1.905466 0.290841,-3.920388 -0.09355,-5.829005 2.399103,-0.777447 4.973851,-1.979087 6.170582,-4.336402 0.81509,-1.610203 0.125581,-3.545849 -1.128469,-4.71627 -1.377081,-1.375458 -3.224827,-2.158741 -5.0343,-2.777406 C 27.685238,8.4795879 27.971129,5.5593777 26.392275,3.335198 25.567918,2.255914 24.134683,1.78812 22.8125,1.9101562 Z m -5.410156,6.6464844 c 0.895503,1.0104647 1.730012,2.0750984 2.484375,3.1953124 1.596053,0.152507 3.218747,0.357541 4.742187,0.734375 -0.451031,1.526236 -1.067155,2.996855 -1.722656,4.445313 0.645069,1.450767 1.289251,2.909604 1.712891,4.443359 -1.546542,0.380752 -3.129277,0.586429 -4.714844,0.716797 -0.91158,1.302804 -1.863652,2.586525 -2.982422,3.720703 C 15.830796,24.657523 14.83981,23.409275 13.949219,22.09375 12.36415,21.948352 10.774603,21.771226 9.2304688,21.371094 9.6815662,19.844742 10.285675,18.368787 10.966797,16.931641 10.287679,15.492965 9.678623,14.018282 9.2304688,12.490234 c 1.5487022,-0.379749 3.1333732,-0.58624 4.7207032,-0.71875 0.885514,-1.321504 1.876854,-2.5730572 2.974609,-3.724609 0.158854,0.1699219 0.317709,0.3398438 0.476563,0.5097656 z m -0.597656,5.2675784 c -2.022739,0.01342 -3.568524,2.316869 -2.791016,4.193359 0.666945,1.979136 3.500975,2.706616 5.005121,1.227094 1.573073,-1.33543 1.244592,-4.197513 -0.653559,-5.072797 -0.479507,-0.249131 -1.019817,-0.373779 -1.560546,-0.347656 z" /><path
       id="path21"
       style="fill-opacity:1;stroke:#2e5152;stroke-width:0.954491;stroke-dashoffset:18.1417;fill:url(#radialGradient29);stroke-opacity:1"
       d="M 10.422103 2.9558919 A 15.719587 6.3509612 60 0 0 9.9363442 3.0065348 A 15.719587 6.3509612 60 0 0 9.0733478 3.3196939 A 15.719587 6.3509612 60 0 0 8.3705483 3.9103556 A 15.719587 6.3509612 60 0 0 7.8424152 4.7656005 A 15.719587 6.3509612 60 0 0 7.4987669 5.8688923 A 15.719587 6.3509612 60 0 0 7.3478718 7.1974933 A 15.719587 6.3509612 60 0 0 7.39128 8.7245319 A 15.719587 6.3509612 60 0 0 7.6295083 10.417969 A 15.719587 6.3509612 60 0 0 7.9390501 11.740368 A 15.719587 6.3509612 0 0 1 8.4346271 11.590507 A 15.719587 6.3509612 0 0 1 10.402982 11.156425 A 15.719587 6.3509612 0 0 1 12.504663 10.839648 A 15.719587 6.3509612 0 0 1 13.371277 10.763684 A 6.3509612 15.719587 30 0 1 13.870471 10.051066 A 6.3509612 15.719587 30 0 1 15.195455 8.3896686 A 6.3509612 15.719587 30 0 1 16.555578 6.9019042 A 6.3509612 15.719587 30 0 1 16.933333 6.5474038 A 15.719587 6.3509612 60 0 0 15.943213 5.6182616 A 15.719587 6.3509612 60 0 0 14.594974 4.5656127 A 15.719587 6.3509612 60 0 0 13.294795 3.7641113 A 15.719587 6.3509612 60 0 0 12.068514 3.2308105 A 15.719587 6.3509612 60 0 0 10.941451 2.9765624 A 15.719587 6.3509612 60 0 0 10.422103 2.9558919 z M 16.933333 6.5474038 A 15.719587 6.3509612 60 0 1 17.311088 6.9019042 A 15.719587 6.3509612 60 0 1 18.671211 8.3896686 A 15.719587 6.3509612 60 0 1 19.996195 10.051066 A 15.719587 6.3509612 60 0 1 20.484537 10.748181 A 15.719587 6.3509612 0 0 1 20.639567 10.761617 A 15.719587 6.3509612 0 0 1 21.362003 10.839648 A 15.719587 6.3509612 0 0 1 22.074621 10.931632 A 15.719587 6.3509612 0 0 1 22.77587 11.037052 A 15.719587 6.3509612 0 0 1 23.463684 11.156425 A 15.719587 6.3509612 0 0 1 24.136511 11.2882 A 15.719587 6.3509612 0 0 1 24.793318 11.43341 A 15.719587 6.3509612 0 0 1 25.432039 11.590507 A 15.719587 6.3509612 0 0 1 25.944669 11.73055 A 6.3509612 15.719587 30 0 0 25.972574 11.62358 A 6.3509612 15.719587 30 0 0 26.115201 11.014315 A 6.3509612 15.719587 30 0 0 26.237158 10.417969 A 6.3509612 15.719587 30 0 0 26.337927 9.8371255 A 6.3509612 15.719587 30 0 0 26.416992 9.2723021 A 6.3509612 15.719587 30 0 0 26.475386 8.7245319 A 6.3509612 15.719587 30 0 0 26.51156 8.1953652 A 6.3509612 15.719587 30 0 0 26.526029 7.6858356 A 6.3509612 15.719587 30 0 0 26.518794 7.1974933 A 6.3509612 15.719587 30 0 0 26.490372 6.7313719 A 6.3509612 15.719587 30 0 0 26.439729 6.2879882 A 6.3509612 15.719587 30 0 0 26.367899 5.8688923 A 6.3509612 15.719587 30 0 0 26.274365 5.4751179 A 6.3509612 15.719587 30 0 0 26.159643 5.1071817 A 6.3509612 15.719587 30 0 0 26.024251 4.7656005 A 6.3509612 15.719587 30 0 0 25.868188 4.4519246 A 6.3509612 15.719587 30 0 0 25.691971 4.1666707 A 6.3509612 15.719587 30 0 0 25.496118 3.9103556 A 6.3509612 15.719587 30 0 0 25.28011 3.683496 A 6.3509612 15.719587 30 0 0 25.046016 3.4860921 A 6.3509612 15.719587 30 0 0 24.793318 3.3196939 A 6.3509612 15.719587 30 0 0 23.930322 3.0065348 A 6.3509612 15.719587 30 0 0 22.925215 2.9765624 A 6.3509612 15.719587 30 0 0 21.798152 3.2308105 A 6.3509612 15.719587 30 0 0 20.571871 3.7641113 A 6.3509612 15.719587 30 0 0 19.271692 4.5656127 A 6.3509612 15.719587 30 0 0 17.923453 5.6182616 A 6.3509612 15.719587 30 0 0 16.933333 6.5474038 z M 25.944669 11.73055 A 6.3509612 15.719587 30 0 1 25.809794 12.24473 A 6.3509612 15.719587 30 0 1 25.626342 12.876733 A 6.3509612 15.719587 30 0 1 25.423771 13.517521 A 6.3509612 15.719587 30 0 1 25.201562 14.166577 A 6.3509612 15.719587 30 0 1 24.96075 14.821834 A 6.3509612 15.719587 30 0 1 24.701851 15.481742 A 6.3509612 15.719587 30 0 1 24.424865 16.144751 A 6.3509612 15.719587 30 0 1 24.131343 16.809826 A 6.3509612 15.719587 30 0 1 24.073982 16.933333 A 15.719587 6.3509612 60 0 1 24.131343 17.05684 A 15.719587 6.3509612 60 0 1 24.424865 17.721915 A 15.719587 6.3509612 60 0 1 24.701851 18.384924 A 15.719587 6.3509612 60 0 1 24.96075 19.044832 A 15.719587 6.3509612 60 0 1 25.201562 19.700089 A 15.719587 6.3509612 60 0 1 25.423771 20.349145 A 15.719587 6.3509612 60 0 1 25.626342 20.989933 A 15.719587 6.3509612 60 0 1 25.809794 21.621936 A 15.719587 6.3509612 60 0 1 25.941052 22.122163 A 15.719587 6.3509612 0 0 0 27.227278 21.73304 A 15.719587 6.3509612 0 0 0 28.813228 21.092252 A 15.719587 6.3509612 0 0 0 30.157332 20.366715 A 15.719587 6.3509612 0 0 0 31.232202 19.571415 A 15.719587 6.3509612 0 0 0 32.016133 18.722371 A 15.719587 6.3509612 0 0 0 32.493106 17.837154 A 15.719587 6.3509612 0 0 0 32.652787 16.933333 A 15.719587 6.3509612 0 0 0 32.635217 16.631026 A 15.719587 6.3509612 0 0 0 32.58199 16.329752 A 15.719587 6.3509612 0 0 0 32.493106 16.029512 A 15.719587 6.3509612 0 0 0 32.369083 15.731339 A 15.719587 6.3509612 0 0 0 32.20992 15.436267 A 15.719587 6.3509612 0 0 0 32.016133 15.144295 A 15.719587 6.3509612 0 0 0 31.78824 14.85594 A 15.719587 6.3509612 0 0 0 31.526757 14.572754 A 15.719587 6.3509612 0 0 0 31.232202 14.295251 A 15.719587 6.3509612 0 0 0 30.905606 14.022916 A 15.719587 6.3509612 0 0 0 30.546972 13.757816 A 15.719587 6.3509612 0 0 0 30.157332 13.499951 A 15.719587 6.3509612 0 0 0 29.738236 13.24932 A 15.719587 6.3509612 0 0 0 29.289684 13.007475 A 15.719587 6.3509612 0 0 0 28.813228 12.774414 A 15.719587 6.3509612 0 0 0 28.309899 12.550655 A 15.719587 6.3509612 0 0 0 27.781249 12.336714 A 15.719587 6.3509612 0 0 0 27.227278 12.133626 A 15.719587 6.3509612 0 0 0 26.650569 11.94139 A 15.719587 6.3509612 0 0 0 26.051639 11.760005 A 15.719587 6.3509612 0 0 0 25.944669 11.73055 z M 25.941052 22.122163 A 15.719587 6.3509612 0 0 1 25.432039 22.276159 A 15.719587 6.3509612 0 0 1 23.463684 22.710241 A 15.719587 6.3509612 0 0 1 21.362003 23.027018 A 15.719587 6.3509612 0 0 1 20.495389 23.102982 A 6.3509612 15.719587 30 0 1 19.996195 23.8156 A 6.3509612 15.719587 30 0 1 18.671211 25.476997 A 6.3509612 15.719587 30 0 1 17.311088 26.964762 A 6.3509612 15.719587 30 0 1 16.933333 27.319262 A 15.719587 6.3509612 60 0 0 17.923453 28.248404 A 15.719587 6.3509612 60 0 0 19.271692 29.301053 A 15.719587 6.3509612 60 0 0 20.571871 30.102555 A 15.719587 6.3509612 60 0 0 21.798152 30.635856 A 15.719587 6.3509612 60 0 0 22.925215 30.890104 A 15.719587 6.3509612 60 0 0 23.930322 30.860131 A 15.719587 6.3509612 60 0 0 24.793318 30.546972 A 15.719587 6.3509612 60 0 0 25.046016 30.380574 A 15.719587 6.3509612 60 0 0 25.28011 30.18317 A 15.719587 6.3509612 60 0 0 25.496118 29.95631 A 15.719587 6.3509612 60 0 0 25.691971 29.699995 A 15.719587 6.3509612 60 0 0 25.868188 29.414741 A 15.719587 6.3509612 60 0 0 26.024251 29.101066 A 15.719587 6.3509612 60 0 0 26.159643 28.759484 A 15.719587 6.3509612 60 0 0 26.274365 28.391548 A 15.719587 6.3509612 60 0 0 26.367899 27.997774 A 15.719587 6.3509612 60 0 0 26.439729 27.578678 A 15.719587 6.3509612 60 0 0 26.490372 27.135294 A 15.719587 6.3509612 60 0 0 26.518794 26.669173 A 15.719587 6.3509612 60 0 0 26.526029 26.18083 A 15.719587 6.3509612 60 0 0 26.51156 25.671301 A 15.719587 6.3509612 60 0 0 26.475386 25.142134 A 15.719587 6.3509612 60 0 0 26.416992 24.594364 A 15.719587 6.3509612 60 0 0 26.337927 24.029541 A 15.719587 6.3509612 60 0 0 26.237158 23.448697 A 15.719587 6.3509612 60 0 0 26.115201 22.852351 A 15.719587 6.3509612 60 0 0 25.972574 22.243086 A 15.719587 6.3509612 60 0 0 25.941052 22.122163 z M 16.933333 27.319262 A 15.719587 6.3509612 60 0 1 16.555578 26.964762 A 15.719587 6.3509612 60 0 1 15.195455 25.476997 A 15.719587 6.3509612 60 0 1 13.870471 23.8156 A 15.719587 6.3509612 60 0 1 13.371277 23.102982 A 15.719587 6.3509612 0 0 1 12.504663 23.027018 A 15.719587 6.3509612 0 0 1 10.402982 22.710241 A 15.719587 6.3509612 0 0 1 8.4346271 22.276159 A 15.719587 6.3509612 0 0 1 7.9390501 22.126298 A 6.3509612 15.719587 30 0 0 7.6295083 23.448697 A 6.3509612 15.719587 30 0 0 7.39128 25.142134 A 6.3509612 15.719587 30 0 0 7.3478718 26.669173 A 6.3509612 15.719587 30 0 0 7.4987669 27.997774 A 6.3509612 15.719587 30 0 0 7.8424152 29.101066 A 6.3509612 15.719587 30 0 0 8.3705483 29.95631 A 6.3509612 15.719587 30 0 0 9.0733478 30.546972 A 6.3509612 15.719587 30 0 0 9.9363442 30.860131 A 6.3509612 15.719587 30 0 0 10.941451 30.890104 A 6.3509612 15.719587 30 0 0 12.068514 30.635856 A 6.3509612 15.719587 30 0 0 13.294795 30.102555 A 6.3509612 15.719587 30 0 0 14.594974 29.301053 A 6.3509612 15.719587 30 0 0 15.943213 28.248404 A 6.3509612 15.719587 30 0 0 16.933333 27.319262 z M 7.9390501 22.126298 A 6.3509612 15.719587 30 0 1 8.0568724 21.621936 A 6.3509612 15.719587 30 0 1 8.665104 19.700089 A 6.3509612 15.719587 30 0 1 9.4418008 17.721915 A 6.3509612 15.719587 30 0 1 9.8092202 16.933333 A 15.719587 6.3509612 60 0 1 9.4418008 16.144751 A 15.719587 6.3509612 60 0 1 8.665104 14.166577 A 15.719587 6.3509612 60 0 1 8.0568724 12.24473 A 15.719587 6.3509612 60 0 1 7.9390501 11.740368 A 15.719587 6.3509612 0 0 0 6.6393879 12.133626 A 15.719587 6.3509612 0 0 0 5.0534382 12.774414 A 15.719587 6.3509612 0 0 0 3.7093342 13.499951 A 15.719587 6.3509612 0 0 0 2.6344645 14.295251 A 15.719587 6.3509612 0 0 0 1.850533 15.144295 A 15.719587 6.3509612 0 0 0 1.3735595 16.029512 A 15.719587 6.3509612 0 0 0 1.2138794 16.933333 A 15.719587 6.3509612 0 0 0 1.3735595 17.837154 A 15.719587 6.3509612 0 0 0 1.850533 18.722371 A 15.719587 6.3509612 0 0 0 2.6344645 19.571415 A 15.719587 6.3509612 0 0 0 3.7093342 20.366715 A 15.719587 6.3509612 0 0 0 5.0534382 21.092252 A 15.719587 6.3509612 0 0 0 6.6393879 21.73304 A 15.719587 6.3509612 0 0 0 7.9390501 22.126298 z " /><circle
       style="fill:#549498;fill-opacity:1;stroke:#2e5152;stroke-width:1.05833;stroke-dashoffset:18.1417;stroke-opacity:1"
       id="path29"
       cx="16.933332"
       cy="16.933311"
       r="2.0561798" /></g></svg>
